<svg width="13" height="13" viewBox="0 0 13 13" fill="none" xmlns="http://www.w3.org/2000/svg">
<g id="IONIcon/S/settings/sharp">
<path id="Vector" d="M6.49979 4.62512C6.12895 4.62512 5.76643 4.73509 5.45809 4.94111C5.14975 5.14714 4.90943 5.43998 4.76751 5.78259C4.6256 6.1252 4.58847 6.5022 4.66081 6.86591C4.73316 7.22963 4.91174 7.56372 5.17396 7.82594C5.43619 8.08817 5.77028 8.26674 6.13399 8.33909C6.49771 8.41144 6.87471 8.37431 7.21732 8.23239C7.55993 8.09048 7.85276 7.85016 8.05879 7.54181C8.26482 7.23347 8.37479 6.87096 8.37479 6.50012C8.3733 6.0033 8.17528 5.52724 7.82397 5.17593C7.47266 4.82462 6.99661 4.6266 6.49979 4.62512ZM10.5479 6.50012C10.5469 6.67532 10.5341 6.85025 10.5095 7.02371L11.6506 7.91715C11.7003 7.95819 11.7338 8.01557 11.7451 8.07902C11.7564 8.14248 11.7448 8.20789 11.7123 8.26356L10.6328 10.1273C10.5999 10.1825 10.5487 10.2243 10.4881 10.2454C10.4275 10.2666 10.3614 10.2657 10.3013 10.2429L8.95955 9.70379C8.68015 9.91894 8.37439 10.0975 8.04971 10.2351L7.84908 11.6596C7.83785 11.7235 7.80481 11.7814 7.75561 11.8235C7.70641 11.8657 7.64409 11.8894 7.57932 11.8907H5.42026C5.35666 11.8895 5.29536 11.8667 5.24636 11.8262C5.19737 11.7856 5.16357 11.7296 5.15049 11.6674L4.94987 10.2429C4.62429 10.1068 4.31831 9.92799 4.04002 9.71106L2.69823 10.2501C2.63825 10.2729 2.57214 10.2739 2.51152 10.2528C2.45091 10.2317 2.39967 10.1899 2.36682 10.1348L1.28729 8.27129C1.25479 8.21562 1.24315 8.15022 1.25445 8.08676C1.26574 8.0233 1.29923 7.96592 1.34893 7.92488L2.4901 7.03145C2.46576 6.85536 2.45292 6.67788 2.45166 6.50012C2.45264 6.32492 2.46548 6.14999 2.4901 5.97653L1.34893 5.08309C1.29923 5.04205 1.26574 4.98467 1.25445 4.92121C1.24315 4.85776 1.25479 4.79235 1.28729 4.73668L2.36682 2.87293C2.39964 2.81776 2.45086 2.77593 2.51148 2.75479C2.57209 2.73366 2.63822 2.73458 2.69823 2.75739L4.04002 3.29645C4.31942 3.0813 4.62518 2.90274 4.94987 2.76512L5.15049 1.34059C5.16172 1.27678 5.19476 1.21885 5.24396 1.1767C5.29317 1.13455 5.35548 1.1108 5.42026 1.1095H7.57932C7.64291 1.11073 7.70421 1.1335 7.75321 1.17406C7.80221 1.21463 7.836 1.27061 7.84908 1.33286L8.04971 2.75739C8.37569 2.89332 8.68207 3.07216 8.96072 3.28918L10.3013 2.75012C10.3613 2.72729 10.4274 2.72634 10.488 2.74743C10.5487 2.76852 10.5999 2.8103 10.6328 2.86543L11.7123 4.72918C11.7448 4.78485 11.7564 4.85026 11.7451 4.91371C11.7338 4.97717 11.7003 5.03455 11.6506 5.07559L10.5095 5.96903C10.5338 6.14503 10.5466 6.32244 10.5479 6.50012Z" fill="#718096"/>
</g>
</svg>
